<?xml version="1.0" standalone="no"?>
<!DOCTYPE svg PUBLIC "-//W3C//DTD SVG 1.1//EN" "http://www.w3.org/Graphics/SVG/1.1/DTD/svg11.dtd">
<svg xmlns="http://www.w3.org/2000/svg">
<metadata>Copyright (C) 2021 by original authors @ fontello.com</metadata>
<defs>
<font id="fontello" horiz-adv-x="1000" >
<font-face font-family="fontello" font-weight="400" font-stretch="normal" units-per-em="1000" ascent="850" descent="-150" />
<missing-glyph horiz-adv-x="1000" />
<glyph glyph-name="mail-1" unicode="&#xe800;" d="M467 366l-449 210 0 109 893 0 0-109z m0-123l444 210 0-437-893 0 0 438z" horiz-adv-x="928" />

<glyph glyph-name="logout-1" unicode="&#xe801;" d="M357 46q0-2 1-11t0-14-2-14-5-11-12-3h-178q-67 0-114 47t-47 114v392q0 67 47 114t114 47h178q8 0 13-5t5-13q0-2 1-11t0-15-2-13-5-11-12-3h-178q-37 0-63-26t-27-64v-392q0-37 27-63t63-27h174t6 0 7-2 4-3 4-5 1-8z m518 304q0-14-11-25l-303-304q-11-10-25-10t-25 10-11 25v161h-250q-14 0-25 11t-11 25v214q0 15 11 25t25 11h250v161q0 14 11 25t25 10 25-10l303-304q11-10 11-25z" horiz-adv-x="928.6" />

<glyph glyph-name="delete" unicode="&#xe802;" d="M125-25c0-68 57-125 125-125h500c68 0 125 57 125 125v625h-750v-625z m500 812v63h-250v-63h-312v-125h875v125h-313z" horiz-adv-x="1000" />

<glyph glyph-name="pen" unicode="&#xe803;" d="M-2-122c-3-13 5-25 19-28 3 0 6 0 10 0l228 55-205 205-52-232z m984 854c0 0 0 0 0 0l-92 91c-35 35-92 35-128 0l-87-86 205-205 102 101c28 29 28 72 0 99z m-877-567l205-205 517 517-205 206-517-518z" horiz-adv-x="1000" />

<glyph glyph-name="edit" unicode="&#xe804;" d="M770 470l-189 190-481-481 190-190z m145 144a65 65 0 0 1 0 91h0l-85 85a84 84 0 0 1-119 0l-81-81 190-190z m-707-684l30 7-189 190-49-215a22 22 0 0 1 17-26 27 27 0 0 1 5 0v0h978v44z" horiz-adv-x="1000" />

<glyph glyph-name="vote" unicode="&#xe805;" d="M646 26h-292v-59h292z m-587-147a30 30 0 0 1 29-29h824a30 30 0 0 1 29 29v264h-883z m236 176a30 30 0 0 0 29 30h352a30 30 0 0 0 29-30v-117a30 30 0 0 0-29-29h-352a30 30 0 0 0-29 29z m585 543a29 29 0 0 1-27 16h-89v-88h29a30 30 0 1 0 7-59 25 25 0 0 0-7 0h-586a30 30 0 0 0 0 58h30v89h-91a29 29 0 0 1-26-17l-109-218h978z m-175 223a30 30 0 0 1-29 29h-352a30 30 0 0 1-29-29v-295h410z m-73-88a36 36 0 0 0-5-5l-136-136a29 29 0 0 0-41 0h0l-88 88a30 30 0 0 0 0 42v0a30 30 0 0 0 42 0l66-67 116 116a30 30 0 0 0 46-38z m-632-412v-90a30 30 0 0 1 30-29h941a30 30 0 0 1 29 29v90z" horiz-adv-x="1000" />

<glyph glyph-name="lock" unicode="&#xe806;" d="M854 475h-62v83a292 292 0 0 1-583 0v-83h-63a21 21 0 0 1-21-21h0v-521a83 83 0 0 1 83-83h584a83 83 0 0 1 83 83v521a21 21 0 0 1-21 21z m-291-435a21 21 0 0 0-19-23h-86a21 21 0 0 0-20 21s0 1 0 2l12 118a83 83 0 0 0-34 67 83 83 0 1 0 167 3v-3a83 83 0 0 0-34-67z m104 435h-334v83a167 167 0 0 0 334 0z" horiz-adv-x="1000" />

<glyph glyph-name="user" unicode="&#xe807;" d="M502 323a264 264 0 1 1-264 262 264 264 0 0 1 264-262z m328-173a379 379 0 0 1-271 114h-118a378 378 0 0 1-270-114 382 382 0 0 1-112-271 29 29 0 0 1 29-29h824a29 29 0 0 1 29 29h0a383 383 0 0 1-111 271z" horiz-adv-x="1000" />

<glyph glyph-name="send" unicode="&#xe808;" d="M982 841c-12 9-28 11-42 5l-916-416c-14-7-24-21-24-37 0-16 9-31 23-38l284-142-16-319c0-16 8-31 22-38 7-4 13-5 20-5 9 0 18 3 25 8l153 115 79-107c8-10 20-16 33-16 2 0 4 0 6 0 15 2 28 13 33 27l336 915c6 17 0 37-16 48z m-603-862l7 161 49-65 26-35-82-61z" horiz-adv-x="1000" />

<glyph glyph-name="calendar" unicode="&#xe809;" d="M844 772h-51v39c0 22-17 39-39 39-22 0-39-17-39-39v-39h-178v39c0 22-17 39-39 39-21 0-39-17-39-39v-39h-176v39c0 22-17 39-39 39s-39-17-39-39v-39h-49c-86 0-156-70-156-156v-610c0-86 70-156 156-156h299c22 0 39 17 39 39 0 22-17 39-39 39h-299c-43 0-78 35-78 78v610c0 43 35 78 78 78h49v-39c0-22 18-39 39-39s39 17 39 39v39h176v-39c0-22 18-39 39-39s39 17 39 39v39h178v-39c0-22 17-39 39-39 22 0 39 17 39 39v39h51c43 0 78-35 78-78v-223c0-22 17-39 39-39 22 0 39 17 39 39v223c0 86-70 156-156 156z m-80-449c-131 0-237-106-237-237s106-236 237-236 236 106 236 236-106 237-236 237z m0-395c-88 0-158 71-158 158s70 159 158 159c87 0 158-71 158-159s-71-158-158-158z m56 197h-17v41c0 22-18 40-39 40-22 0-39-18-39-40v-80c0-21 17-39 39-39h56c22 0 39 18 39 39 0 22-17 39-39 39z" horiz-adv-x="1000" />

<glyph glyph-name="less" unicode="&#xe80b;" d="M500 850c-276 0-500-224-500-500s224-500 500-500 500 224 500 500-224 500-500 500z m0-929c-236 0-428 193-428 429s192 429 428 429 429-193 429-429-193-429-429-429z m202 465h-404c-20 0-36-16-36-36 0-20 16-36 36-36h404c20 0 36 16 36 36 0 20-16 36-36 36z" horiz-adv-x="1000" />

<glyph glyph-name="flag" unicode="&#xe80d;" d="M294-103l-210 753c-6 22-29 35-51 29l-2-1c-23-6-36-29-29-51l210-753c5-17 23-28 41-23 0 0 0 0 0 0l0 0 18 5c18 5 28 23 23 41 0 0 0 0 0 0z m699 480l0 0c-66 33-128 76-183 126-5 4-6 11-5 17 27 103 48 207 61 313 2 17-8 22-18 10-196-234-535 43-737-170 3-4 5-9 6-14l136-488c202 210 540-65 736 168 10 12 12 35 4 38z" horiz-adv-x="1000" />

<glyph glyph-name="meeting" unicode="&#xe80e;" d="M73 475h15l54-71c5-7 14-12 23-12h2c9 0 17 4 23 11l62 71c-40 25-64 68-65 116v187c0 11 2 21 5 31h-119c-40 0-73-32-73-73v-187c0-40 33-73 73-73z m854 333h-119c3-10 5-20 5-31v-187c-1-48-25-91-66-116l63-71c6-7 14-11 23-11h2c9 0 18 5 23 12l53 71h16c40 0 73 33 73 73v187c0 41-33 73-73 73z m-604-291h99l53-71c6-8 14-12 24-13h1c9 0 18 4 24 11l63 73h90c40 0 73 32 73 73v187c0 40-33 73-73 73h-354c-40 0-73-33-73-73v-187c0-41 33-73 73-73z m-104-417h-104c-64 0-115-51-115-115v-20c0-18 14-32 31-32h177v11c0 55 26 107 70 140-18 10-38 16-59 16z m682 149c0 48-38 86-86 86-47 0-86-38-86-86 0-47 39-85 86-85 48 0 86 38 86 85z m-617 0c0 48-38 86-86 86s-85-38-85-86c0-47 38-85 85-85s86 38 86 85z m601-149h-104c-21 0-41-6-59-17 44-33 70-84 69-139v-11h177c18 0 32 14 32 31v21c0 64-51 115-115 115z m-510 146c0-69 56-125 125-125 69 0 125 56 125 125 0 69-56 125-125 125-69 0-125-56-125-125z m240-188h-230c-63 0-114-51-114-114v-63c0-17 14-31 31-31h396c17 0 31 14 31 31v63c0 63-51 114-114 114z" horiz-adv-x="1000" />

<glyph glyph-name="url" unicode="&#xe80f;" d="M370 598c-118-122-92-324 43-413 5-3 10-3 14 1 29 28 53 55 74 89 3 5 1 12-4 15-21 11-41 32-53 54l0 0c-14 27-19 58-11 90 0 0 0 0 0 0 8 41 52 79 85 114 0 0 0 0 0 0l125 128c50 51 132 51 183 1 51-50 51-133 2-184l-76-78c-4-3-5-9-3-13 17-51 22-122 10-176-1-2 1-3 2-2l162 165c103 105 102 277-2 381-106 106-279 105-385-2l-165-169c0 0-1 0-1-1z m302-437c0 0 0 0 0 0 0 0 0 0 0 1 33 60 40 129 24 196l0 0 0 0c-15 60-55 120-109 156-5 4-13 3-17 0-28-23-55-51-73-88-2-6 0-13 5-16 21-12 40-30 52-53l0 0c10-17 20-48 13-82 0 0 0 0 0 0-5-44-51-85-86-122l0 0c-28-28-97-99-125-127-50-51-132-52-183-2-51 50-52 132-2 183l76 78c3 4 5 9 3 14-17 52-21 121-11 175 0 2-1 3-2 2l-159-163c-105-106-104-279 2-384 106-105 278-103 382 3 36 41 191 184 210 229z" horiz-adv-x="1000" />

<glyph glyph-name="cancel" unicode="&#xe812;" d="M0 90q0 36 26 62l195 195-195 196q-26 25-26 61t26 61 61 25 61-25l196-196 195 196q25 25 61 25t61-25 25-61-25-61l-195-196 195-195q25-26 25-62t-25-61q-25-25-61-25t-61 25l-195 195-196-195q-25-25-61-25t-61 25q-26 26-26 61z" horiz-adv-x="686.5" />

<glyph glyph-name="add" unicode="&#xe814;" d="M500 850c-276 0-500-224-500-500s224-500 500-500 500 224 500 500-224 500-500 500z m0-929c-236 0-429 193-429 429s193 429 429 429 429-193 429-429-193-429-429-429z m0 667c-20 0-36-16-36-36v-404c0-20 16-36 36-36 20 0 36 16 36 36v404c0 20-16 36-36 36z m202-202h-404c-20 0-36-16-36-36 0-20 16-36 36-36h404c20 0 36 16 36 36 0 20-16 36-36 36z" horiz-adv-x="1000" />

<glyph glyph-name="megaphone" unicode="&#xe818;" d="M787 643l63 63c12 11 12 30 0 41-11 12-30 12-41 0l-63-62c-11-12-11-30 0-42 12-11 30-11 41 0z m137-138h-63c-16 0-29-13-29-29s13-30 29-30h63c16 0 29 13 29 30s-13 29-29 29z m-346 224c17 0 30 13 30 29v63c0 16-13 29-30 29s-29-13-29-29v-63c0-16 13-29 29-29z m-522-609c-12-12-12-30 0-42l125-125c12-12 30-12 42 0l49 49-167 167z m507-24l-206-97 141-140c11-12 30-12 41 0l110 109c12 12 12 30 0 42z m-121 651c-6 7-16 10-25 8-10-1-18-7-22-16l-249-529 167-167 529 249c9 4 15 12 16 22s-1 19-8 25z" horiz-adv-x="1000" />

<glyph glyph-name="check" unicode="&#xe819;" d="M500 850a500 500 0 1 1 500-500 500 500 0 0 1-500 500z m0-909a409 409 0 1 0 409 409 409 409 0 0 0-409-409z m192 577h0l-254-254-116 116a45 45 0 0 1-64-63h0l148-148a45 45 0 0 1 63 0l286 285a45 45 0 0 1-63 64z" horiz-adv-x="1000" />

<glyph glyph-name="copy" unicode="&#xe820;" d="M365 38c-98 0-177 79-177 177v427h-73c-64 0-115-52-115-115v-562c0-64 51-115 115-115h520c64 0 115 51 115 115v73z m0 0m552 697c0 64-52 115-115 115h-437c-64 0-115-51-115-115v-520c0-64 51-115 115-115h437c63 0 115 51 115 115z m0 0" horiz-adv-x="1000" />

<glyph glyph-name="point" unicode="&#xe899;" d="M992 24l-171 171 83 84a29 29 0 0 1 7 11 30 30 0 0 1-19 37l-497 165a29 29 0 0 1-37-37l165-497a30 30 0 0 1 8-12 29 29 0 0 1 41 0l83 84 171-172h0a30 30 0 0 1 41 0l125 125a30 30 0 0 1 0 41z m-611 592a29 29 0 0 1 29 29v176a29 29 0 1 1-58 0v-176h0a29 29 0 0 1 29-29z m-228 123a29 29 0 0 1-41-42l124-124a29 29 0 0 1 41 41z m83-373l-124-125a29 29 0 0 1 41-41l124 124a29 29 0 0 1-41 42z m290 207l124 124a29 29 0 0 1-41 42l-125-125a29 29 0 0 1 42-41z m-292-104a29 29 0 0 1-29 30h-176a29 29 0 0 1 0-59h176a29 29 0 0 1 29 29z" horiz-adv-x="1000" />

<glyph glyph-name="menu" unicode="&#xf0c9;" d="M857 100v-71q0-15-10-25t-26-11h-785q-15 0-25 11t-11 25v71q0 15 11 25t25 11h785q15 0 26-11t10-25z m0 286v-72q0-14-10-25t-26-10h-785q-15 0-25 10t-11 25v72q0 14 11 25t25 10h785q15 0 26-10t10-25z m0 285v-71q0-14-10-25t-26-11h-785q-15 0-25 11t-11 25v71q0 15 11 26t25 10h785q15 0 26-10t10-26z" horiz-adv-x="857.1" />

<glyph glyph-name="sort" unicode="&#xf0dc;" d="M571 243q0-15-10-25l-250-250q-11-11-25-11t-25 11l-250 250q-11 10-11 25t11 25 25 11h500q14 0 25-11t10-25z m0 214q0-14-10-25t-25-11h-500q-15 0-25 11t-11 25 11 25l250 250q10 11 25 11t25-11l250-250q10-10 10-25z" horiz-adv-x="571.4" />

<glyph glyph-name="angle-left" unicode="&#xf104;" d="M350 546q0-7-6-12l-219-220 219-219q6-6 6-13t-6-13l-28-28q-5-5-12-5t-13 5l-260 261q-6 5-6 12t6 13l260 260q5 6 13 6t12-6l28-28q6-5 6-13z" horiz-adv-x="357.1" />

<glyph glyph-name="angle-right" unicode="&#xf105;" d="M332 314q0-7-5-12l-261-261q-5-5-12-5t-13 5l-28 28q-6 6-6 13t6 13l219 219-219 220q-6 5-6 12t6 13l28 28q5 6 13 6t12-6l261-260q5-5 5-13z" horiz-adv-x="357.1" />

<glyph glyph-name="angle-up" unicode="&#xf106;" d="M600 189q0-7-6-12l-28-28q-5-6-12-6t-13 6l-220 219-219-219q-5-6-13-6t-12 6l-28 28q-6 5-6 12t6 13l260 260q5 6 12 6t13-6l260-260q6-5 6-13z" horiz-adv-x="642.9" />

<glyph glyph-name="angle-down" unicode="&#xf107;" d="M600 439q0-7-6-12l-260-261q-5-5-13-5t-12 5l-260 261q-6 5-6 12t6 13l28 28q5 6 12 6t13-6l219-219 220 219q5 6 13 6t12-6l28-28q6-5 6-13z" horiz-adv-x="642.9" />

<glyph glyph-name="doc-text-inv" unicode="&#xf15c;" d="M819 584q8-7 16-20h-264v264q13-8 21-16z m-265-91h303v-589q0-23-15-38t-38-16h-750q-23 0-38 16t-16 38v892q0 23 16 38t38 16h446v-304q0-22 16-37t38-16z m89-411v36q0 8-5 13t-13 5h-393q-8 0-13-5t-5-13v-36q0-8 5-13t13-5h393q8 0 13 5t5 13z m0 143v36q0 8-5 13t-13 5h-393q-8 0-13-5t-5-13v-36q0-8 5-13t13-5h393q8 0 13 5t5 13z m0 143v36q0 7-5 12t-13 5h-393q-8 0-13-5t-5-12v-36q0-8 5-13t13-5h393q8 0 13 5t5 13z" horiz-adv-x="857.1" />
</font>
</defs>
</svg>
